<svg xmlns="http://www.w3.org/2000/svg" aria-hidden="true" style="position:absolute;width:0;height:0;overflow:hidden">
  <defs>
    <symbol id="icon-check" viewBox="0 0 34 32">
      <path fill="#2196f3" d="M4.3 0h25.6C32.2 0 34 2 34 4.3v23.4c0 2.4-1.9 4.3-4.2 4.3H4.3C1.9 32 0 30 0 27.7V4.3C0 1.9 2 0 4.3 0z" style="fill:var(--color1, #2196f3)"/>
      <path fill="#fff" stroke="#fff" stroke-width=".4" d="m8.4 16.5-.1-.1-2.2 2 7.8 7.5 16.3-15.6-2.2-2-14.1 13.4-5.5-5.2z" style="fill:var(--color2, #fff);stroke:var(--color2, #fff)"/>
    </symbol>
    <symbol id="icon-email" viewBox="0 0 32 32">
      <path d="M26.7 5.3H5.3A2.7 2.7 0 0 0 2.7 8v16c0 1.5 1.2 2.7 2.6 2.7h21.4c1.4 0 2.6-1.2 2.6-2.7V8c0-1.5-1.2-2.7-2.6-2.7zM26 11l-9.4 5.9c-.4.3-1 .3-1.4 0L5.9 11c-.4-.2-.6-.6-.6-1 0-.9 1-1.4 1.8-1l8.9 5.7L25 9A1.1 1.1 0 1 1 26 11z"/>
    </symbol>
    <symbol id="icon-icon-send" viewBox="0 0 32 32">
      <path fill="#fff" d="M32 0 0 18l10.2 3.8L26 7 14 23.2V32l5.7-6.7L27 28l5-28z" style="fill:var(--color2, #fff)"/>
    </symbol>
    <symbol id="icon-person" viewBox="0 0 32 32">
      <path d="M16 16a5.3 5.3 0 1 0 0-10.7A5.3 5.3 0 0 0 16 16zm0 2.7c-3.6 0-10.7 1.8-10.7 5.3v1.3c0 .8.6 1.4 1.4 1.4h18.6c.8 0 1.4-.6 1.4-1.4V24c0-3.5-7.1-5.3-10.7-5.3z"/>
    </symbol>
    <symbol id="icon-phone" viewBox="0 0 32 32">
      <path d="m24.9 19.8-3.3-.4c-.8 0-1.5.2-2.1.7l-2.4 2.4A19.4 19.4 0 0 1 8.7 14l2.3-2.4c.6-.5.9-1.3.8-2l-.4-3.3A2.6 2.6 0 0 0 8.8 4H6.6A2.6 2.6 0 0 0 4 6.7c.7 11 9.5 19.7 20.5 20.4 1.4.1 2.6-1.1 2.6-2.6v-2.2c0-1.3-1-2.4-2.2-2.5z"/>
    </symbol>
    <symbol id="icon-checkbox-unchecked" viewBox="0 0 32 32">
      <path d="M28 0H4a4 4 0 0 0-4 4v24a4 4 0 0 0 4 4h24a4 4 0 0 0 4-4V4a4 4 0 0 0-4-4zm0 28H4V4h24v24z"/>
    </symbol>
  </defs>
</svg>
